<svg width="146" height="35" viewBox="0 0 146 35" fill="none" xmlns="http://www.w3.org/2000/svg">
<path d="M9.42 13.06V14.54H3.36V19.24H8.28V20.72H3.36V27H1.54V13.06H9.42ZM16.3981 27.18C15.3715 27.18 14.4381 26.9467 13.5981 26.48C12.7715 26.0133 12.1181 25.3533 11.6381 24.5C11.1715 23.6333 10.9381 22.6333 10.9381 21.5C10.9381 20.38 11.1781 19.3933 11.6581 18.54C12.1515 17.6733 12.8181 17.0133 13.6581 16.56C14.4981 16.0933 15.4381 15.86 16.4781 15.86C17.5181 15.86 18.4581 16.0933 19.2981 16.56C20.1381 17.0133 20.7981 17.6667 21.2781 18.52C21.7715 19.3733 22.0181 20.3667 22.0181 21.5C22.0181 22.6333 21.7648 23.6333 21.2581 24.5C20.7648 25.3533 20.0915 26.0133 19.2381 26.48C18.3848 26.9467 17.4381 27.18 16.3981 27.18ZM16.3981 25.58C17.0515 25.58 17.6648 25.4267 18.2381 25.12C18.8115 24.8133 19.2715 24.3533 19.6181 23.74C19.9781 23.1267 20.1581 22.38 20.1581 21.5C20.1581 20.62 19.9848 19.8733 19.6381 19.26C19.2915 18.6467 18.8381 18.1933 18.2781 17.9C17.7181 17.5933 17.1115 17.44 16.4581 17.44C15.7915 17.44 15.1781 17.5933 14.6181 17.9C14.0715 18.1933 13.6315 18.6467 13.2981 19.26C12.9648 19.8733 12.7981 20.62 12.7981 21.5C12.7981 22.3933 12.9581 23.1467 13.2781 23.76C13.6115 24.3733 14.0515 24.8333 14.5981 25.14C15.1448 25.4333 15.7448 25.58 16.3981 25.58ZM26.2311 17.82C26.5511 17.1933 27.0044 16.7067 27.5911 16.36C28.1911 16.0133 28.9178 15.84 29.7711 15.84V17.72H29.2911C27.2511 17.72 26.2311 18.8267 26.2311 21.04V27H24.4111V16.04H26.2311V17.82ZM40.112 23.9H34.032L32.912 27H30.992L36.032 13.14H38.132L43.152 27H41.232L40.112 23.9ZM39.592 22.42L37.072 15.38L34.552 22.42H39.592ZM55.0686 16.04V27H53.2486V25.38C52.9019 25.94 52.4153 26.38 51.7886 26.7C51.1753 27.0067 50.4953 27.16 49.7486 27.16C48.8953 27.16 48.1286 26.9867 47.4486 26.64C46.7686 26.28 46.2286 25.7467 45.8286 25.04C45.4419 24.3333 45.2486 23.4733 45.2486 22.46V16.04H47.0486V22.22C47.0486 23.3 47.3219 24.1333 47.8686 24.72C48.4153 25.2933 49.1619 25.58 50.1086 25.58C51.0819 25.58 51.8486 25.28 52.4086 24.68C52.9686 24.08 53.2486 23.2067 53.2486 22.06V16.04H55.0686ZM60.3616 17.54V24C60.3616 24.5333 60.4749 24.9133 60.7016 25.14C60.9282 25.3533 61.3216 25.46 61.8816 25.46H63.2216V27H61.5816C60.5682 27 59.8082 26.7667 59.3016 26.3C58.7949 25.8333 58.5416 25.0667 58.5416 24V17.54H57.1216V16.04H58.5416V13.28H60.3616V16.04H63.2216V17.54H60.3616ZM70.2067 27.18C69.1801 27.18 68.2467 26.9467 67.4067 26.48C66.5801 26.0133 65.9267 25.3533 65.4467 24.5C64.9801 23.6333 64.7467 22.6333 64.7467 21.5C64.7467 20.38 64.9867 19.3933 65.4667 18.54C65.9601 17.6733 66.6267 17.0133 67.4667 16.56C68.3067 16.0933 69.2467 15.86 70.2867 15.86C71.3267 15.86 72.2667 16.0933 73.1067 16.56C73.9467 17.0133 74.6067 17.6667 75.0867 18.52C75.5801 19.3733 75.8267 20.3667 75.8267 21.5C75.8267 22.6333 75.5734 23.6333 75.0667 24.5C74.5734 25.3533 73.9001 26.0133 73.0467 26.48C72.1934 26.9467 71.2467 27.18 70.2067 27.18ZM70.2067 25.58C70.8601 25.58 71.4734 25.4267 72.0467 25.12C72.6201 24.8133 73.0801 24.3533 73.4267 23.74C73.7867 23.1267 73.9667 22.38 73.9667 21.5C73.9667 20.62 73.7934 19.8733 73.4467 19.26C73.1001 18.6467 72.6467 18.1933 72.0867 17.9C71.5267 17.5933 70.9201 17.44 70.2667 17.44C69.6001 17.44 68.9867 17.5933 68.4267 17.9C67.8801 18.1933 67.4401 18.6467 67.1067 19.26C66.7734 19.8733 66.6067 20.62 66.6067 21.5C66.6067 22.3933 66.7667 23.1467 67.0867 23.76C67.4201 24.3733 67.8601 24.8333 68.4067 25.14C68.9534 25.4333 69.5534 25.58 70.2067 25.58ZM91.3997 15.84C92.253 15.84 93.013 16.02 93.6797 16.38C94.3464 16.7267 94.873 17.2533 95.2597 17.96C95.6464 18.6667 95.8397 19.5267 95.8397 20.54V27H94.0397V20.8C94.0397 19.7067 93.7664 18.8733 93.2197 18.3C92.6864 17.7133 91.9597 17.42 91.0397 17.42C90.093 17.42 89.3397 17.7267 88.7797 18.34C88.2197 18.94 87.9397 19.8133 87.9397 20.96V27H86.1397V20.8C86.1397 19.7067 85.8664 18.8733 85.3197 18.3C84.7864 17.7133 84.0597 17.42 83.1397 17.42C82.193 17.42 81.4397 17.7267 80.8797 18.34C80.3197 18.94 80.0397 19.8133 80.0397 20.96V27H78.2197V16.04H80.0397V17.62C80.3997 17.0467 80.8797 16.6067 81.4797 16.3C82.093 15.9933 82.7664 15.84 83.4997 15.84C84.4197 15.84 85.233 16.0467 85.9397 16.46C86.6464 16.8733 87.173 17.48 87.5197 18.28C87.8264 17.5067 88.333 16.9067 89.0397 16.48C89.7464 16.0533 90.533 15.84 91.3997 15.84ZM98.1452 21.48C98.1452 20.36 98.3718 19.38 98.8252 18.54C99.2785 17.6867 99.8985 17.0267 100.685 16.56C101.485 16.0933 102.372 15.86 103.345 15.86C104.305 15.86 105.138 16.0667 105.845 16.48C106.552 16.8933 107.078 17.4133 107.425 18.04V16.04H109.265V27H107.425V24.96C107.065 25.6 106.525 26.1333 105.805 26.56C105.098 26.9733 104.272 27.18 103.325 27.18C102.352 27.18 101.472 26.94 100.685 26.46C99.8985 25.98 99.2785 25.3067 98.8252 24.44C98.3718 23.5733 98.1452 22.5867 98.1452 21.48ZM107.425 21.5C107.425 20.6733 107.258 19.9533 106.925 19.34C106.592 18.7267 106.138 18.26 105.565 17.94C105.005 17.6067 104.385 17.44 103.705 17.44C103.025 17.44 102.405 17.6 101.845 17.92C101.285 18.24 100.838 18.7067 100.505 19.32C100.172 19.9333 100.005 20.6533 100.005 21.48C100.005 22.32 100.172 23.0533 100.505 23.68C100.838 24.2933 101.285 24.7667 101.845 25.1C102.405 25.42 103.025 25.58 103.705 25.58C104.385 25.58 105.005 25.42 105.565 25.1C106.138 24.7667 106.592 24.2933 106.925 23.68C107.258 23.0533 107.425 22.3267 107.425 21.5ZM114.561 17.54V24C114.561 24.5333 114.674 24.9133 114.901 25.14C115.127 25.3533 115.521 25.46 116.081 25.46H117.421V27H115.781C114.767 27 114.007 26.7667 113.501 26.3C112.994 25.8333 112.741 25.0667 112.741 24V17.54H111.321V16.04H112.741V13.28H114.561V16.04H117.421V17.54H114.561ZM129.626 21.1C129.626 21.4467 129.606 21.8133 129.566 22.2H120.806C120.873 23.28 121.239 24.1267 121.906 24.74C122.586 25.34 123.406 25.64 124.366 25.64C125.153 25.64 125.806 25.46 126.326 25.1C126.859 24.7267 127.233 24.2333 127.446 23.62H129.406C129.113 24.6733 128.526 25.5333 127.646 26.2C126.766 26.8533 125.673 27.18 124.366 27.18C123.326 27.18 122.393 26.9467 121.566 26.48C120.753 26.0133 120.113 25.3533 119.646 24.5C119.179 23.6333 118.946 22.6333 118.946 21.5C118.946 20.3667 119.173 19.3733 119.626 18.52C120.079 17.6667 120.713 17.0133 121.526 16.56C122.353 16.0933 123.299 15.86 124.366 15.86C125.406 15.86 126.326 16.0867 127.126 16.54C127.926 16.9933 128.539 17.62 128.966 18.42C129.406 19.2067 129.626 20.1 129.626 21.1ZM127.746 20.72C127.746 20.0267 127.593 19.4333 127.286 18.94C126.979 18.4333 126.559 18.0533 126.026 17.8C125.506 17.5333 124.926 17.4 124.286 17.4C123.366 17.4 122.579 17.6933 121.926 18.28C121.286 18.8667 120.919 19.68 120.826 20.72H127.746Z" fill="black"/>
<path d="M125 10.9794L135.136 10.9793L135.136 19.7948" stroke="#742775" stroke-width="4" stroke-linecap="round"/>
<path d="M131 4.97935L141.136 4.97934L141.136 13.7948" stroke="#742775" stroke-width="4" stroke-linecap="round"/>
</svg>
