<svg width="189" height="48" viewBox="0 0 189 48" fill="none" xmlns="http://www.w3.org/2000/svg">
<path d="M1.02539 17.0411C1.02539 16.6674 1.15755 16.3529 1.42188 16.0977C1.69531 15.8334 2.01888 15.7012 2.39258 15.7012L13.5352 15.6876H13.5488C13.9225 15.6876 14.2415 15.8243 14.5059 16.0977C14.7793 16.362 14.916 16.6811 14.916 17.0547C14.916 17.4284 14.7793 17.752 14.5059 18.0255C14.2415 18.2898 13.9225 18.4219 13.5488 18.4219H13.5352L3.75977 18.4356L3.77344 23.4122L10.8965 23.3438H11.0469C11.4115 23.3438 11.7077 23.4896 11.9355 23.7813C12.1634 24.073 12.2773 24.3555 12.2773 24.629C12.2773 25.0209 12.1497 25.3627 11.8945 25.6544C11.6393 25.9369 11.3112 26.0782 10.9102 26.0782L3.78711 26.1465L3.80078 34.1036V34.1309C3.80078 34.4955 3.66406 34.81 3.39062 35.0743C3.1263 35.3386 2.80729 35.4708 2.43359 35.4708C2.0599 35.4708 1.73633 35.3386 1.46289 35.0743C1.19857 34.81 1.06641 34.4955 1.06641 34.1309V34.1172L1.02539 17.0411ZM24.1172 20.336C25.1654 20.336 26.1406 20.5365 27.043 20.9376C27.9544 21.3386 28.752 21.8946 29.4355 22.6055C30.1191 23.3165 30.6523 24.1322 31.0352 25.0528C31.4271 25.9734 31.623 26.9532 31.623 27.9922C31.623 29.0131 31.4271 29.9838 31.0352 30.9044C30.6432 31.8158 30.1009 32.6225 29.4082 33.3243C28.7246 34.017 27.9271 34.5639 27.0156 34.9649C26.1133 35.3659 25.1471 35.5665 24.1172 35.5665C23.0964 35.5665 22.1302 35.3705 21.2188 34.9786C20.3164 34.5866 19.5189 34.0443 18.8262 33.3516C18.1426 32.6589 17.6048 31.8568 17.2129 30.9454C16.821 30.0248 16.625 29.0404 16.625 27.9922C16.625 26.9532 16.821 25.9734 17.2129 25.0528C17.6048 24.1322 18.1426 23.321 18.8262 22.6192C19.5189 21.9083 20.3164 21.3523 21.2188 20.9512C22.1211 20.5411 23.0872 20.336 24.1172 20.336ZM19.3867 28.0196C19.3867 28.9037 19.6009 29.7103 20.0293 30.4395C20.4668 31.1596 21.0456 31.7338 21.7656 32.1622C22.4857 32.5906 23.2741 32.8047 24.1309 32.8047C25.0059 32.8047 25.7988 32.586 26.5098 32.1485C27.2298 31.7019 27.7995 31.114 28.2188 30.3848C28.6471 29.6557 28.8613 28.8581 28.8613 27.9922C28.8613 27.1081 28.6517 26.2969 28.2324 25.5587C27.8132 24.8113 27.2435 24.2143 26.5234 23.7676C25.8125 23.321 25.0104 23.0977 24.1172 23.0977C23.2148 23.0977 22.4082 23.3256 21.6973 23.7813C20.9863 24.2279 20.4212 24.8249 20.002 25.5723C19.5918 26.3106 19.3867 27.1264 19.3867 28.0196ZM42.7246 22.0587C42.7246 22.7878 42.3737 23.1934 41.6719 23.2755C41.4167 23.3028 41.0931 23.2208 40.7012 23.0294C40.3092 22.8288 39.9128 22.7286 39.5117 22.7286C38.7188 22.7286 38.0898 22.9337 37.625 23.3438C37.1602 23.7449 36.8275 24.2872 36.627 24.9708C36.4264 25.6544 36.3262 26.42 36.3262 27.2676V34.3223C36.3262 34.7234 36.2031 35.0424 35.957 35.2794C35.7201 35.5163 35.3874 35.6348 34.959 35.6348C34.5397 35.6348 34.207 35.5163 33.9609 35.2794C33.7148 35.0424 33.5918 34.7188 33.5918 34.3087V21.7169C33.5918 21.3067 33.6921 20.9695 33.8926 20.7051C34.1022 20.4408 34.3848 20.3087 34.7402 20.3087C34.9499 20.3087 35.1914 20.3998 35.4648 20.5821C35.7474 20.7553 35.9434 21.0561 36.0527 21.4844L36.1895 22.4688C36.3079 22.2136 36.5358 21.9174 36.873 21.5801C37.2103 21.2429 37.6113 20.9512 38.0762 20.7051C38.541 20.4499 39.0241 20.3223 39.5254 20.3223C40.4551 20.3223 41.2207 20.4317 41.8223 20.6505C42.4238 20.8601 42.7246 21.3295 42.7246 22.0587ZM51.3789 16.2344C51.4792 16.0066 51.6478 15.8152 51.8848 15.6602C52.1309 15.4962 52.3815 15.4141 52.6367 15.4141C52.8828 15.4141 53.1289 15.4962 53.375 15.6602C53.6302 15.8152 53.8034 16.0066 53.8945 16.2344L61.4141 33.6797C61.4961 33.862 61.5371 34.0489 61.5371 34.2403C61.5371 34.614 61.4004 34.9376 61.127 35.211C60.8626 35.4753 60.5436 35.6075 60.1699 35.6075C59.9147 35.6075 59.6641 35.5255 59.418 35.3614C59.1719 35.1973 58.9987 35.0014 58.8984 34.7735L56.5605 29.3458L48.7676 29.2364L46.375 34.7872C46.2839 35.015 46.1152 35.211 45.8691 35.3751C45.623 35.5482 45.3724 35.6348 45.1172 35.6348C44.7435 35.6348 44.4199 35.5027 44.1465 35.2383C43.8822 34.9649 43.75 34.6413 43.75 34.2676C43.75 34.0762 43.791 33.8894 43.873 33.7071L51.3789 16.2344ZM52.6367 20.2403L49.9434 26.5157L55.3711 26.584L52.6367 20.2403ZM73.0352 33.461C72.543 33.935 71.9551 34.4135 71.2715 34.8965C70.5879 35.3705 69.7858 35.6075 68.8652 35.6075C67.6712 35.6075 66.6777 35.293 65.8848 34.6641C65.0918 34.0261 64.5085 33.2878 64.1348 32.4493C63.8431 31.7839 63.6654 31.1277 63.6016 30.4805C63.5469 29.8243 63.5195 29.209 63.5195 28.6348V21.7305C63.5195 21.3568 63.6517 21.0378 63.916 20.7735C64.1895 20.5001 64.513 20.3633 64.8867 20.3633C65.2604 20.3633 65.5794 20.5001 65.8438 20.7735C66.1172 21.0378 66.2539 21.3568 66.2539 21.7305V28.6348C66.2539 29.1635 66.2767 29.6602 66.3223 30.1251C66.377 30.5808 66.4818 30.9818 66.6367 31.3282C66.819 31.7292 67.0924 32.0893 67.457 32.4083C67.8216 32.7182 68.2819 32.8731 68.8379 32.8731C70.1868 32.8731 71.2214 32.3581 71.9414 31.3282C72.6706 30.2982 73.0306 28.9083 73.0215 27.1583L73.0078 21.7032C73.0078 21.3295 73.14 21.0105 73.4043 20.7462C73.6777 20.4727 74.0013 20.336 74.375 20.336C74.7578 20.336 75.0814 20.4727 75.3457 20.7462C75.61 21.0105 75.7422 21.334 75.7422 21.7169L75.7695 34.2813C75.7695 34.655 75.6647 34.9786 75.4551 35.252C75.2546 35.5163 74.9674 35.6485 74.5938 35.6485C74.2201 35.6485 73.9329 35.5163 73.7324 35.252C73.5319 34.9786 73.377 34.655 73.2676 34.2813L73.0352 33.461ZM80.4727 17.8887C80.4727 17.515 80.6048 17.196 80.8691 16.9317C81.1335 16.6583 81.457 16.5215 81.8398 16.5215C82.2135 16.5215 82.5326 16.6583 82.7969 16.9317C83.0703 17.196 83.207 17.515 83.207 17.8887V20.6094H85.0391C85.3945 20.6094 85.6999 20.737 85.9551 20.9922C86.2103 21.2475 86.3379 21.5528 86.3379 21.9083C86.3379 22.2637 86.2103 22.5691 85.9551 22.8243C85.6999 23.0795 85.3945 23.2071 85.0391 23.2071H83.1934L83.1797 31.67V31.6973C83.1797 32.1439 83.2298 32.4538 83.3301 32.627C83.4303 32.7911 83.6354 32.8731 83.9453 32.8731C84.3372 32.8731 84.6836 32.7683 84.9844 32.5587C85.0938 32.4857 85.2259 32.4219 85.3809 32.3672C85.5358 32.3034 85.6862 32.2715 85.832 32.2715C86.2057 32.2715 86.5247 32.4037 86.7891 32.668C87.0625 32.9324 87.1992 33.2514 87.1992 33.6251C87.1992 34.0717 87.0169 34.4317 86.6523 34.7051C86.306 34.9695 85.9095 35.1882 85.4629 35.3614C85.0163 35.5346 84.5378 35.6212 84.0273 35.6212C82.8789 35.6212 81.9948 35.2702 81.375 34.5684C80.7552 33.8575 80.4453 32.9734 80.4453 31.9161V31.793L80.459 23.2208H78.6953C78.3398 23.2208 78.0345 23.0932 77.7793 22.838C77.5241 22.5827 77.3965 22.2774 77.3965 21.9219C77.3965 21.5665 77.5241 21.2611 77.7793 21.0059C78.0345 20.7507 78.3398 20.6231 78.6953 20.6231H80.4727V17.8887ZM95.7031 20.336C96.7513 20.336 97.7266 20.5365 98.6289 20.9376C99.5404 21.3386 100.338 21.8946 101.021 22.6055C101.705 23.3165 102.238 24.1322 102.621 25.0528C103.013 25.9734 103.209 26.9532 103.209 27.9922C103.209 29.0131 103.013 29.9838 102.621 30.9044C102.229 31.8158 101.687 32.6225 100.994 33.3243C100.311 34.017 99.513 34.5639 98.6016 34.9649C97.6992 35.3659 96.7331 35.5665 95.7031 35.5665C94.6823 35.5665 93.7161 35.3705 92.8047 34.9786C91.9023 34.5866 91.1048 34.0443 90.4121 33.3516C89.7285 32.6589 89.1908 31.8568 88.7988 30.9454C88.4069 30.0248 88.2109 29.0404 88.2109 27.9922C88.2109 26.9532 88.4069 25.9734 88.7988 25.0528C89.1908 24.1322 89.7285 23.321 90.4121 22.6192C91.1048 21.9083 91.9023 21.3523 92.8047 20.9512C93.707 20.5411 94.6732 20.336 95.7031 20.336ZM90.9727 28.0196C90.9727 28.9037 91.1868 29.7103 91.6152 30.4395C92.0527 31.1596 92.6315 31.7338 93.3516 32.1622C94.0716 32.5906 94.86 32.8047 95.7168 32.8047C96.5918 32.8047 97.3848 32.586 98.0957 32.1485C98.8158 31.7019 99.3854 31.114 99.8047 30.3848C100.233 29.6557 100.447 28.8581 100.447 27.9922C100.447 27.1081 100.238 26.2969 99.8184 25.5587C99.3991 24.8113 98.8294 24.2143 98.1094 23.7676C97.3984 23.321 96.5964 23.0977 95.7031 23.0977C94.8008 23.0977 93.9941 23.3256 93.2832 23.7813C92.5723 24.2279 92.0072 24.8249 91.5879 25.5723C91.1777 26.3106 90.9727 27.1264 90.9727 28.0196ZM110.934 20.3223C111.818 20.3223 112.592 20.5365 113.258 20.9649C113.932 21.3933 114.484 21.9128 114.912 22.5235C115.423 21.9311 116.038 21.4161 116.758 20.9786C117.478 20.532 118.28 20.3087 119.164 20.3087C120.331 20.3087 121.297 20.6231 122.062 21.252C122.837 21.8718 123.411 22.6876 123.785 23.6993C124.159 24.711 124.346 25.8047 124.346 26.9805L124.359 34.2676C124.359 34.6322 124.227 34.9467 123.963 35.211C123.699 35.4753 123.375 35.6075 122.992 35.6075C122.609 35.6075 122.286 35.4753 122.021 35.211C121.757 34.9467 121.625 34.6322 121.625 34.2676L121.611 27.0079C121.611 26.3152 121.548 25.668 121.42 25.0665C121.292 24.4558 121.06 23.9636 120.723 23.5899C120.385 23.2162 119.898 23.0294 119.26 23.0294C118.585 23.0294 118.007 23.2162 117.523 23.5899C117.049 23.9636 116.685 24.4558 116.43 25.0665C116.184 25.668 116.061 26.3197 116.061 27.0215L116.074 34.3087C116.074 34.6732 115.938 34.9877 115.664 35.252C115.4 35.5072 115.081 35.6348 114.707 35.6348C114.324 35.6348 114.001 35.5027 113.736 35.2383C113.472 34.974 113.34 34.6596 113.34 34.295V27.0352C113.34 26.1784 113.194 25.4538 112.902 24.8614C112.62 24.2689 112.251 23.8223 111.795 23.5215C111.348 23.2116 110.888 23.0567 110.414 23.0567C109.74 23.0567 109.133 23.3712 108.596 24.0001C108.058 24.629 107.789 25.6088 107.789 26.9395V34.3087C107.789 34.6732 107.652 34.9877 107.379 35.252C107.115 35.5072 106.796 35.6348 106.422 35.6348C106.048 35.6348 105.725 35.5027 105.451 35.2383C105.187 34.974 105.055 34.6596 105.055 34.295V21.6485C105.055 21.2748 105.123 20.9603 105.26 20.7051C105.406 20.4408 105.67 20.3087 106.053 20.3087C106.354 20.3087 106.632 20.4044 106.887 20.5958C107.142 20.7872 107.347 21.1062 107.502 21.5528L107.762 22.3047C108.053 21.7032 108.5 21.2247 109.102 20.8692C109.712 20.5046 110.323 20.3223 110.934 20.3223ZM134.189 20.2676C134.864 20.2676 135.52 20.4044 136.158 20.6778C136.805 20.9421 137.38 21.2794 137.881 21.6895C138.391 22.0906 138.77 22.5053 139.016 22.9337L139.166 21.6212C139.166 21.2475 139.275 20.9284 139.494 20.6641C139.713 20.3907 140.009 20.254 140.383 20.254C140.757 20.254 141.076 20.3907 141.34 20.6641C141.613 20.9284 141.75 21.2475 141.75 21.6212V21.6485L141.723 34.3087C141.723 34.6824 141.586 35.0059 141.312 35.2794C141.048 35.5437 140.729 35.6758 140.355 35.6758C139.982 35.6758 139.686 35.5437 139.467 35.2794C139.248 35.0059 139.139 34.6824 139.139 34.3087L138.988 33.2149C138.514 34.0261 137.822 34.6322 136.91 35.0333C135.999 35.4252 135.083 35.6212 134.162 35.6212C133.132 35.6212 132.166 35.4206 131.264 35.0196C130.361 34.6094 129.568 34.0489 128.885 33.338C128.201 32.627 127.663 31.8113 127.271 30.8907C126.889 29.9701 126.697 28.9994 126.697 27.9786C126.697 26.9669 126.884 26.0007 127.258 25.0801C127.641 24.1505 128.169 23.3256 128.844 22.6055C129.527 21.8764 130.32 21.3067 131.223 20.8965C132.134 20.4773 133.123 20.2676 134.189 20.2676ZM138.906 27.9512C138.906 27.058 138.697 26.2377 138.277 25.4903C137.867 24.7429 137.307 24.1413 136.596 23.6856C135.885 23.2299 135.074 23.002 134.162 23.002C133.269 23.002 132.462 23.2299 131.742 23.6856C131.022 24.1413 130.452 24.7475 130.033 25.504C129.614 26.2514 129.404 27.0626 129.404 27.9376C129.404 28.8217 129.618 29.642 130.047 30.3985C130.475 31.1459 131.049 31.7475 131.77 32.2032C132.499 32.6589 133.301 32.8868 134.176 32.8868C135.051 32.8868 135.844 32.6589 136.555 32.2032C137.275 31.7475 137.844 31.1459 138.264 30.3985C138.692 29.642 138.906 28.8262 138.906 27.9512ZM146.535 17.8887C146.535 17.515 146.667 17.196 146.932 16.9317C147.196 16.6583 147.52 16.5215 147.902 16.5215C148.276 16.5215 148.595 16.6583 148.859 16.9317C149.133 17.196 149.27 17.515 149.27 17.8887V20.6094H151.102C151.457 20.6094 151.762 20.737 152.018 20.9922C152.273 21.2475 152.4 21.5528 152.4 21.9083C152.4 22.2637 152.273 22.5691 152.018 22.8243C151.762 23.0795 151.457 23.2071 151.102 23.2071H149.256L149.242 31.67V31.6973C149.242 32.1439 149.292 32.4538 149.393 32.627C149.493 32.7911 149.698 32.8731 150.008 32.8731C150.4 32.8731 150.746 32.7683 151.047 32.5587C151.156 32.4857 151.288 32.4219 151.443 32.3672C151.598 32.3034 151.749 32.2715 151.895 32.2715C152.268 32.2715 152.587 32.4037 152.852 32.668C153.125 32.9324 153.262 33.2514 153.262 33.6251C153.262 34.0717 153.079 34.4317 152.715 34.7051C152.368 34.9695 151.972 35.1882 151.525 35.3614C151.079 35.5346 150.6 35.6212 150.09 35.6212C148.941 35.6212 148.057 35.2702 147.438 34.5684C146.818 33.8575 146.508 32.9734 146.508 31.9161V31.793L146.521 23.2208H144.758C144.402 23.2208 144.097 23.0932 143.842 22.838C143.587 22.5827 143.459 22.2774 143.459 21.9219C143.459 21.5665 143.587 21.2611 143.842 21.0059C144.097 20.7507 144.402 20.6231 144.758 20.6231H146.535V17.8887ZM161.547 20.377C162.759 20.377 163.871 20.6778 164.883 21.2794C165.895 21.8809 166.706 22.6921 167.316 23.713C167.936 24.7247 168.246 25.8503 168.246 27.0899C168.246 27.3451 168.232 27.6049 168.205 27.8692C168.169 28.2064 168.014 28.4936 167.74 28.7305C167.476 28.9584 167.175 29.0723 166.838 29.0723L157.281 29.086C157.436 29.7422 157.728 30.3575 158.156 30.9317C158.585 31.5059 159.104 31.9708 159.715 32.3262C160.335 32.6817 161.009 32.8594 161.738 32.8594C162.522 32.8594 163.224 32.668 163.844 32.2852C164.464 31.9024 164.947 31.4603 165.293 30.959C165.402 30.7859 165.566 30.64 165.785 30.5215C166.013 30.4031 166.227 30.3438 166.428 30.3438C166.801 30.3438 167.12 30.4805 167.385 30.754C167.658 31.0274 167.795 31.351 167.795 31.7247C167.795 32.0163 167.713 32.2761 167.549 32.504C166.984 33.3334 166.204 34.0534 165.211 34.6641C164.227 35.2657 163.083 35.5665 161.779 35.5665C160.731 35.5665 159.756 35.3614 158.854 34.9512C157.96 34.5411 157.181 33.9805 156.516 33.2696C155.85 32.5587 155.331 31.7429 154.957 30.8223C154.592 29.8926 154.41 28.9128 154.41 27.8829C154.41 26.8894 154.592 25.946 154.957 25.0528C155.322 24.1505 155.827 23.3484 156.475 22.6465C157.131 21.9447 157.892 21.3933 158.758 20.9922C159.624 20.5821 160.553 20.377 161.547 20.377ZM165.43 26.338C165.257 25.4447 164.81 24.6837 164.09 24.0547C163.37 23.4258 162.522 23.1114 161.547 23.1114C160.553 23.1114 159.674 23.435 158.908 24.0821C158.152 24.7292 157.641 25.4857 157.377 26.3516L165.43 26.338Z" fill="white"/>
<path d="M161 13.9136L175.074 13.9136L175.074 26.6988" stroke="#742775" stroke-width="5" stroke-linecap="round"/>
<path d="M168 6.91362L182.074 6.91361L182.074 19.6988" stroke="#742775" stroke-width="5" stroke-linecap="round"/>
</svg>
